<?xml version="1.0" standalone="no"?><!DOCTYPE svg PUBLIC "-//W3C//DTD SVG 1.1//EN" "http://www.w3.org/Graphics/SVG/1.1/DTD/svg11.dtd"><svg t="1787719985931" class="icon" viewBox="0 0 1024 1024" version="1.1" xmlns="http://www.w3.org/2000/svg" p-id="74909" xmlns:xlink="http://www.w3.org/1999/xlink" width="200" height="200"><path d="M173.66898 840.368125a65.98905 65.98905 0 0 1-66.005184 65.997117 65.98905 65.98905 0 0 1-66.005183-65.997117V648.886942a66.005184 66.005184 0 1 1 132.010367 0v191.481183z" fill="#FF1A1A" p-id="74910"></path><path d="M107.663796 582.881758a66.005184 66.005184 0 0 0-66.005183 66.013251v12.988065c0 36.45532 29.541797 65.997117 66.005183 65.997117s66.005184-29.541797 66.005184-65.997117v-12.988065a65.997117 65.997117 0 0 0-66.005184-66.013251z" fill="#FF7676" p-id="74911"></path><path d="M107.663796 918.465924c-43.070359 0-78.105865-35.035506-78.105865-78.097799V648.895009c0-43.070359 35.035506-78.113932 78.105865-78.113932s78.105865 35.043573 78.105866 78.113932v191.473116c0 43.062292-35.035506 78.097798-78.105866 78.097799z m0-323.483484a53.969039 53.969039 0 0 0-53.904502 53.912569v191.473116c0 29.719274 24.177162 53.896435 53.904502 53.896436s53.904502-24.177162 53.904503-53.896436V648.895009a53.969039 53.969039 0 0 0-53.904503-53.912569z" fill="#33363A" p-id="74912"></path><path d="M982.33332 840.368125a65.98905 65.98905 0 0 1-66.013251 65.997117 65.98905 65.98905 0 0 1-65.997116-65.997117V648.886942a65.997117 65.997117 0 0 1 65.997116-66.013251 66.005184 66.005184 0 0 1 66.013251 66.013251v191.481183z" fill="#FF1A1A" p-id="74913"></path><path d="M916.320069 582.881758a65.997117 65.997117 0 0 0-65.997116 66.013251v12.988065a65.98905 65.98905 0 0 0 65.997116 65.997117 65.98905 65.98905 0 0 0 66.013251-65.997117v-12.988065a66.005184 66.005184 0 0 0-66.013251-66.013251z" fill="#FF7676" p-id="74914"></path><path d="M916.320069 918.465924c-43.062292 0-78.097798-35.035506-78.097798-78.097799V648.895009c0-43.070359 35.035506-78.113932 78.097798-78.113932 43.070359 0 78.113932 35.043573 78.113933 78.113932v191.473116c0 43.062292-35.043573 78.097798-78.113933 78.097799z m0-323.483484c-29.719274 0-53.896435 24.185229-53.896435 53.912569v191.473116a53.952905 53.952905 0 0 0 53.896435 53.896436c29.727341 0 53.912569-24.177162 53.91257-53.896436V648.895009a53.969039 53.969039 0 0 0-53.91257-53.912569z" fill="#33363A" p-id="74915"></path><path d="M539.867869 91.884508H484.107929c-199.830653 0-362.423477 162.60089-362.423476 362.439611v418.183416c0 76.984535 62.391114 139.391783 139.391783 139.391784h501.81526c77.00067 0 139.407917-62.407248 139.407917-139.391784V454.316052c0.008067-199.830653-162.584756-362.431544-362.431544-362.431544z" fill="#8DE4FF" p-id="74916"></path><path d="M539.867869 190.327585H484.107929c-199.830653 0-362.423477 162.60089-362.423476 362.439611v319.740339c0 76.984535 62.391114 139.391783 139.391783 139.391784h501.81526c77.00067 0 139.407917-62.407248 139.407917-139.391784V552.759129c0.008067-199.830653-162.584756-362.431544-362.431544-362.431544z" fill="#00AAFF" p-id="74917"></path><path d="M771.466845 778.807925c0 65.271076-52.912246 118.199456-118.183322 118.199457H370.716477c-65.263009 0-118.183322-52.936448-118.183322-118.199457V690.158333c0-65.263009 52.928381-118.167188 118.183322-118.167188h282.567046c65.279143 0 118.183322 52.912246 118.183322 118.167188v88.649592z" fill="#FF1A1A" p-id="74918"></path><path d="M370.716477 571.983078c-43.312372 0-81.082633 23.362382-101.669926 58.123607 20.587293 34.769291 58.349486 58.155875 101.669926 58.155875h282.567046c43.312372 0 81.082633-23.386584 101.653791-58.155875-20.579226-34.761224-58.341419-58.123607-101.653791-58.123607H370.716477z" fill="#FF7676" p-id="74919"></path><path d="M770.982818 474.427384a12.100681 12.100681 0 0 1-12.100681-12.100681c0-125.927758-102.452436-228.380195-228.396329-228.380195h-36.98775c-125.927758 0-228.388262 102.452436-228.388262 228.380195a12.100681 12.100681 0 1 1-24.201363 0C240.916501 323.047859 354.227282 209.745145 493.498058 209.745145h36.98775c139.286911 0 252.597692 113.302714 252.597691 252.581558a12.100681 12.100681 0 0 1-12.100681 12.100681zM773.233545 552.428377a18.860929 18.860929 0 0 1-18.828661-18.844795V512.342853c0-10.382385 8.446276-18.82866 18.828661-18.828661s18.82866 8.446276 18.82866 18.828661v21.240729a18.852862 18.852862 0 0 1-18.82866 18.844795z" fill="#33363A" p-id="74920"></path><path d="M633.22866 91.561823C618.12701 38.786718 569.554875 0 511.995966 0 454.445125 0 405.864923 38.77865 390.77134 91.561823c-161.503762 41.577941-281.187568 188.447946-281.187569 362.754229v418.183416c0 83.535038 67.965494 151.492465 151.492465 151.492465h501.81526c83.543105 0 151.508599-67.957427 151.508599-151.492465V454.316052c0.008067-174.298216-119.667672-321.16822-281.171435-362.754229zM511.995966 24.201363c41.828022 0 77.823516 25.338827 93.530201 61.463395a374.790373 374.790373 0 0 0-65.658298-5.880932H484.107929c-22.402395 0-44.312695 2.089384-65.642163 5.880932C434.180518 49.54019 470.167944 24.201363 511.995966 24.201363z m378.210833 848.298105c0 70.19202-57.107149 127.291102-127.307236 127.291102H261.084303c-70.19202 0-127.291102-57.107149-127.291102-127.291102V454.316052c0-159.204632 106.776413-293.852948 252.452484-336.318274-0.177477 2.71862-0.411423 5.421105-0.411423 8.188128a12.100681 12.100681 0 1 0 24.201363 0c0-4.937078 0.47596-9.761216 1.153598-14.51275a350.556742 350.556742 0 0 1 72.93484-7.687967h55.759941c25.016142 0 49.403049 2.686351 72.942907 7.696034 0.677638 4.751534 1.153598 9.567605 1.153599 14.504683a12.100681 12.100681 0 1 0 24.201363 0c0-2.758955-0.242014-5.461441-0.411424-8.18006 145.668003 42.473392 252.452484 177.113641 252.452484 336.318273v418.175349z" fill="#33363A" p-id="74921"></path><path d="M653.283523 559.882397H370.716477c-71.837712 0-130.284004 58.438224-130.284004 130.267869V778.799858c0 71.845779 58.446291 130.300138 130.284004 130.300138h282.567046c71.837712 0 130.284004-58.454359 130.284004-130.300138V690.158333c0-71.837712-58.446291-130.275937-130.284004-130.275936z m0 325.024303H370.716477c-38.762516 0-72.636357-20.966447-91.1504-52.0894h15.9729a12.100681 12.100681 0 1 0 0-24.201363h-26.573097a105.808359 105.808359 0 0 1-4.340111-29.808012V690.158333c0-58.486627 47.587947-106.066506 106.082641-106.066506H653.275456c58.494694 0 106.082641 47.579879 106.082641 106.066506v88.649592c0 10.358183-1.556954 20.345279-4.340111 29.808012h-26.573097a12.100681 12.100681 0 1 0 0 24.201363h15.9729c-18.497908 31.13102-52.371749 52.0894-91.134266 52.0894z" fill="#33363A" p-id="74922"></path><path d="M419.224075 808.615937h-61.842549a12.100681 12.100681 0 1 0 0 24.201363h61.842549a12.100681 12.100681 0 1 0 0-24.201363zM542.917241 808.615937h-61.842549a12.100681 12.100681 0 1 0 0 24.201363H542.917241a12.100681 12.100681 0 1 0 0-24.201363zM666.60234 808.615937h-61.84255a12.100681 12.100681 0 1 0 0 24.201363h61.84255a12.100681 12.100681 0 1 0 0-24.201363z" fill="#33363A" p-id="74923"></path></svg>