<?xml version="1.0" standalone="no"?><!DOCTYPE svg PUBLIC "-//W3C//DTD SVG 1.1//EN" "http://www.w3.org/Graphics/SVG/1.1/DTD/svg11.dtd"><svg t="1787660813373" class="icon" viewBox="0 0 1024 1024" version="1.1" xmlns="http://www.w3.org/2000/svg" p-id="247100" xmlns:xlink="http://www.w3.org/1999/xlink" width="200" height="200"><path d="M169.184649 926.6688c-34.423467-2.926933-66.568533-8.482133-94.6432-24.302933-35.012267-19.7376-55.458133-57.941333-61.021867-98.7136C-0.722551 699.2128-0.952951 595.933867 0.693982 489.9584c0.7936-50.926933 2.577067-99.0464 10.4448-148.206933 8.2176-51.3536 41.207467-91.460267 92.288-104.763734l2.005333-33.851733c2.8928-48.938667 65.373867-46.993067 125.124267-43.8272 30.993067 1.646933 48.989867 27.1616 45.192533 59.383467l43.195734-1.348267 39.8592-75.810133c15.2832-29.064533 38.997333-47.223467 72.874666-49.041067 67.601067-3.626667 133.9136-4.0448 201.335467-0.913067 31.5648 1.467733 56.533333 17.672533 71.185067 45.7728l41.301333 79.189334c56.226133 1.365333 109.1584 3.1488 163.089067 15.6928 81.152 18.884267 103.8592 90.624 109.0048 171.485866 7.901867 124.1856 9.412267 246.562133-0.7936 370.568534-6.9888 84.9408-47.232 139.8272-134.2464 147.2256-145.5104 12.3648-288.256 12.8256-434.884267 12.970666-94.062933 0.093867-183.0144 0.2816-278.5024-7.825066zM704.770782 213.265067l-30.993067-61.6192c-9.403733-13.6704-21.725867-24.2176-39.1424-25.181867-69.717333-3.848533-136.567467-3.3024-206.4896-0.290133-13.431467 3.182933-26.820267 10.9312-33.3056 22.8352l-36.420266 66.850133 346.350933-2.5856z m-459.793067 6.6304c9.181867-42.9568-43.989333-28.023467-104.3968-25.5232-3.1744 11.400533-4.872533 24.123733-5.307733 34.133333l109.704533-8.610133z m279.04 115.857066c89.250133-2.619733 171.716267 43.716267 219.818667 116.718934l241.885867 2.491733c-1.655467-42.427733-4.778667-82.0992-13.9008-120.541867-10.069333-34.176-31.880533-58.026667-66.2272-67.396266l-89.992534-12.8256-100.701866-5.060267c-166.664533-3.336533-330.410667-0.443733-496.554667 6.562133l-100.957867 10.606934c-36.215467 10.180267-59.5456 32.836267-68.7104 69.504-7.253333 39.389867-10.8288 80.375467-12.2368 121.181866l284.603734-5.367466c45.508267-68.693333 119.5008-113.425067 202.965333-115.874134z m225.160534 248.593067c0-120.3712-97.578667-217.949867-217.949867-217.949867S313.278515 463.9744 313.278515 584.3456s97.578667 217.949867 217.949867 217.949867 217.949867-97.578667 217.949867-217.949867z m237.354666 146.517333l0.930134-243.959466-226.986667-2.8928c49.6896 116.590933 8.072533 245.0176-94.446933 312.046933-137.3696 82.7904-315.758933 19.950933-370.321067-130.8928-20.394667-60.066133-19.566933-120.789333 9.0624-182.007467l-269.4144 4.9664c-1.536 107.895467 0.452267 210.926933 13.934933 314.743467 6.4256 49.467733 38.946133 80.785067 88.2176 85.572267 95.5392 10.0864 188.6464 11.426133 286.225067 11.5456 156.142933 0.196267 308.778667-1.211733 463.104-13.525334 46.276267-3.694933 77.892267-34.372267 89.617067-75.904l10.0864-79.701333z" fill="#010101" p-id="247101"></path><path d="M986.532915 730.862933l-10.0864 79.701334c-11.7248 41.5232-43.3408 72.209067-89.617066 75.904-154.333867 12.3136-306.961067 13.7216-463.104 13.525333-97.578667-0.119467-190.685867-1.467733-286.225067-11.5456-49.262933-4.7872-81.792-36.104533-88.2176-85.572267-13.482667-103.816533-15.479467-206.848-13.934933-314.743466l269.4144-4.9664c-28.6208 61.226667-29.448533 121.941333-9.0624 182.007466 54.562133 150.843733 232.951467 213.6832 370.321066 130.8928 102.519467-67.037867 144.136533-195.464533 94.446934-312.046933l226.986666 2.8928-0.930133 243.959467z" fill="#FAE795" p-id="247102"></path><path d="M524.017715 335.752533c-83.473067 2.449067-157.4656 47.172267-202.965333 115.874134l-284.603733 5.367466c1.408-40.797867 4.983467-81.792 12.2368-121.181866 9.1648-36.667733 32.4864-59.323733 68.7104-69.504l100.957866-10.606934c166.144-7.005867 329.8816-9.9072 496.554667-6.562133l100.701867 5.060267 89.992533 12.8256c34.346667 9.3696 56.157867 33.220267 66.2272 67.396266 9.130667 38.442667 12.253867 78.114133 13.9008 120.541867l-241.885867-2.491733c-48.1024-73.002667-130.568533-119.338667-219.818666-116.718934z m396.6208 23.995734c0-30.933333-25.070933-56.004267-56.004266-56.004267s-56.004267 25.070933-56.004267 56.004267 25.070933 56.004267 56.004267 56.004266 56.004267-25.070933 56.004266-56.004266z" fill="#FAE694" p-id="247103"></path><path d="M749.178249 584.3456c0 120.3712-97.578667 217.949867-217.949867 217.949867S313.278515 704.7168 313.278515 584.3456s97.578667-217.949867 217.949867-217.949867 217.949867 97.578667 217.949867 217.949867z m-57.8304-0.469333c0-88.490667-71.7312-160.221867-160.221867-160.221867s-160.221867 71.7312-160.221867 160.221867 71.7312 160.221867 160.221867 160.221866 160.221867-71.7312 160.221867-160.221866z" fill="#B6DED9" p-id="247104"></path><path d="M704.770782 213.265067l-346.350933 2.5856 36.420266-66.850134c6.485333-11.904 19.8656-19.643733 33.3056-22.8352 69.922133-3.003733 136.772267-3.5584 206.4896 0.290134 17.416533 0.964267 29.738667 11.511467 39.1424 25.181866l30.993067 61.6192z" fill="#FAE797" p-id="247105"></path><path d="M244.977715 219.895467l-109.704533 8.610133c0.4352-10.0096 2.133333-22.7328 5.307733-34.133333 60.407467-2.500267 113.578667-17.4336 104.3968 25.5232z" fill="#B5D7C8" p-id="247106"></path><path d="M920.638515 359.748267c0 30.933333-25.070933 56.004267-56.004266 56.004266s-56.004267-25.070933-56.004267-56.004266 25.070933-56.004267 56.004267-56.004267 56.004267 25.070933 56.004266 56.004267z m-31.044266 0.674133c0-13.960533-11.3152-25.275733-25.275734-25.275733s-25.275733 11.3152-25.275733 25.275733 11.3152 25.275733 25.275733 25.275733 25.275733-11.3152 25.275734-25.275733z" fill="#010101" p-id="247107"></path><path d="M691.347849 583.876267c0 88.490667-71.7312 160.221867-160.221867 160.221866s-160.221867-71.7312-160.221867-160.221866 71.7312-160.221867 160.221867-160.221867 160.221867 71.7312 160.221867 160.221867z m-31.7952 0.221866c0-71.466667-57.941333-129.408-129.408-129.408s-129.408 57.941333-129.408 129.408 57.941333 129.408 129.408 129.408 129.408-57.941333 129.408-129.408z" fill="#010201" p-id="247108"></path><path d="M864.327049 360.4224m-25.275734 0a25.275733 25.275733 0 1 0 50.551467 0 25.275733 25.275733 0 1 0-50.551467 0Z" fill="#AAD6D9" p-id="247109"></path><path d="M530.144649 584.098133m-129.408 0a129.408 129.408 0 1 0 258.816 0 129.408 129.408 0 1 0-258.816 0Z" fill="#B8DFE3" p-id="247110"></path></svg>