<?xml version="1.0" standalone="no"?><!DOCTYPE svg PUBLIC "-//W3C//DTD SVG 1.1//EN" "http://www.w3.org/Graphics/SVG/1.1/DTD/svg11.dtd"><svg t="1787662439208" class="icon" viewBox="0 0 1024 1024" version="1.1" xmlns="http://www.w3.org/2000/svg" p-id="346120" xmlns:xlink="http://www.w3.org/1999/xlink" width="200" height="200"><path d="M492.373333 1.493333a13.824 13.824 0 0 0-19.541333 16.042667c16.896 60.928 21.888 208.298667-211.413333 407.552-211.413333 180.48-169.386667 507.989333 110.549333 554.666667-64.682667-137.728-21.845333-273.322667-21.845333-273.322667s40.746667 315.392 277.290666 306.944c131.114667-12.074667 191.488-82.218667 229.12-151.722667 119.68-221.013333 28.032-481.92-46.933333-569.002666a13.824 13.824 0 0 0-24.32 9.130666c0.554667 43.818667-8.661333 121.386667-72.874667 172.330667-20.224 16.042667-49.493333-2.133333-44.16-27.392 22.912-108.16 40.490667-334.677333-175.829333-445.226667z" fill="#F76260" p-id="346121"></path><path d="M497.152 430.037333a13.824 13.824 0 0 0-20.693333 13.653334c5.589333 41.045333-5.802667 122.581333-135.381334 225.408-128.554667 102.058667-110.677333 296.106667 53.546667 329.642666-35.2-82.645333-7.125333-161.706667-7.125333-161.706666S404.864 1024 544.597333 1024c77.653333-4.352 114.773333-44.458667 138.410667-84.650667 80.384-136.448-11.818667-406.442667-185.856-509.312z" fill="#FFF6BC" fill-opacity=".8" p-id="346122"></path></svg>