<?xml version="1.0" standalone="no"?><!DOCTYPE svg PUBLIC "-//W3C//DTD SVG 1.1//EN" "http://www.w3.org/Graphics/SVG/1.1/DTD/svg11.dtd"><svg t="1787660108042" class="icon" viewBox="0 0 1365 1024" version="1.1" xmlns="http://www.w3.org/2000/svg" p-id="144116" xmlns:xlink="http://www.w3.org/1999/xlink" width="266.6015625" height="200"><path d="M796.444444 625.777778a398.222222 398.222222 0 1 1-796.444444 0 398.222222 398.222222 0 0 1 796.444444 0z" fill="#FFF6E6" p-id="144117"></path><path d="M387.640889 939.121778S519.224889 768 829.838222 768c310.613333 0 441.969778 171.121778 441.969778 171.121778s-31.061333-427.406222-441.969778-427.406222-442.197333 427.406222-442.197333 427.406222z" fill="#FFCE75" p-id="144118"></path><path d="M983.324444 495.957333a258.389333 258.389333 0 0 0 105.244445-208.156444A259.015111 259.015111 0 0 0 829.838222 29.070222 259.015111 259.015111 0 0 0 571.164444 287.857778c0 85.276444 41.528889 161.052444 105.244445 208.156444-191.374222 64.284444-329.784889 245.304889-329.784889 458.069334a40.96 40.96 0 0 0 81.92 0 401.749333 401.749333 0 0 1 401.294222-401.294223 401.749333 401.749333 0 0 1 401.294222 401.294223 40.96 40.96 0 0 0 81.92 0c0.113778-212.764444-138.24-393.841778-329.671111-458.069334zM829.895111 110.933333a177.038222 177.038222 0 0 1 176.810667 176.810667 177.038222 177.038222 0 0 1-176.810667 176.810667 177.038222 177.038222 0 0 1-176.810667-176.810667 176.981333 176.981333 0 0 1 176.810667-176.810667z" fill="#474A54" p-id="144119"></path><path d="M413.809778 508.984889a187.164444 187.164444 0 0 0 120.604444-54.442667 40.96 40.96 0 0 0-57.912889-57.912889 106.097778 106.097778 0 0 1-149.845333 0 106.097778 106.097778 0 0 1 60.871111-179.939555c32.995556-4.380444 65.422222 6.542222 88.974222 30.094222A40.96 40.96 0 0 0 534.414222 188.871111a186.595556 186.595556 0 0 0-157.696-53.361778 186.140444 186.140444 0 0 0-107.975111 53.361778 188.074667 188.074667 0 0 0 0 265.671111l1.251556 1.194667a339.626667 339.626667 0 0 0-214.584889 315.335111 40.96 40.96 0 0 0 81.92 0A257.649778 257.649778 0 0 1 394.695111 513.706667c6.940444 0 13.482667-1.706667 19.114667-4.721778z" fill="#474A54" p-id="144120"></path></svg>