<?xml version="1.0" standalone="no"?><!DOCTYPE svg PUBLIC "-//W3C//DTD SVG 1.1//EN" "http://www.w3.org/Graphics/SVG/1.1/DTD/svg11.dtd"><svg t="1787722880677" class="icon" viewBox="0 0 1024 1024" version="1.1" xmlns="http://www.w3.org/2000/svg" p-id="127525" xmlns:xlink="http://www.w3.org/1999/xlink" width="256" height="256"><path d="M503.765333 537.514667s-51.84 82.432-97.536 105.728c-35.029333 17.92-61.44-24.576-61.44-24.746667l-81.066666 115.498667 377.258666 0.768-137.216-197.248z" fill="#59C2FF" p-id="127526"></path><path d="M338.517333 354.346667a69.376 69.376 0 1 0 0 138.794666 69.376 69.376 0 0 0 0-138.794666z m0.128 100.096a30.72 30.72 0 1 1 0-61.44 30.72 30.72 0 0 1 0 61.44z m375.893334-204.928H187.989333C154.88 249.514667 128 276.394667 128 309.504v526.506667C128 869.12 154.88 896 187.989333 896h526.506667c33.152 0 59.989333-26.88 59.989333-59.989333V309.504c0-33.152-26.88-59.989333-59.989333-59.989333z m13.482666 569.216a29.994667 29.994667 0 0 1-30.037333 30.037333H202.24a29.994667 29.994667 0 0 1-29.994667-30.037333V324.48c0-16.554667 13.44-29.994667 29.994667-29.994667h495.786667c16.554667 0 29.994667 13.44 29.994666 29.994667V818.773333z" fill="#000000" p-id="127527"></path><path d="M836.010667 128H305.749333c-33.152 0-59.989333 26.88-59.989333 59.989333v67.498667h44.245333v-52.48c0-16.554667 13.44-29.994667 29.994667-29.994667h501.76c16.554667 0 29.994667 13.44 29.994667 29.994667v499.498667a29.994667 29.994667 0 0 1-29.994667 29.994666h-76.501333v45.738667h90.752c33.109333 0 59.989333-26.88 59.989333-59.989333V187.989333C896 154.88 869.12 128 836.010667 128z" fill="#000000" p-id="127528"></path><path d="M504.490667 543.146667l129.194666 189.354666H268.8l75.178667-108.970666 22.101333 32 31.018667 44.970666 30.805333-45.098666 76.586667-112.213334z m0-59.648c-2.901333 0-5.802667 1.621333-8.021334 4.864l-99.541333 145.877333-45.610667-66.133333c-2.005333-2.901333-4.693333-4.394667-7.338666-4.394667-2.645333 0-5.290667 1.493333-7.296 4.437333L212.053333 748.672a20.096 20.096 0 0 0 0 21.290667H688.64a22.4 22.4 0 0 0 0-23.466667l-176.170667-258.176c-2.218667-3.242667-5.12-4.864-8.021333-4.864z" fill="#000000" p-id="127529"></path></svg>